<?xml version="1.0" encoding="iso-8859-1"?>
<!-- Generator: Adobe Illustrator 21.0.0, SVG Export Plug-In . SVG Version: 6.00 Build 0)  -->
<svg version="1.1" id="Layer_1" xmlns="http://www.w3.org/2000/svg" xmlns:xlink="http://www.w3.org/1999/xlink" x="0px" y="0px"
	 viewBox="0 0 1000 1000" style="enable-background:new 0 0 1000 1000;" xml:space="preserve">
<g>
	<path style="fill:#102a42;" d="M632.704,780.913c-17.014,10.745-35.409,19.478-54.859,25.875
		c-27.078-10.773-66.258-30.458-110.11-78.165c-19.856-21.603-40.092-48.89-47.715-60.432
		c-14.296-21.647-26.484-44.81-36.229-68.847c-5.932-14.624-10.993-29.661-15.144-44.947c6.025-2.8,12.15-5.394,18.382-7.766
		c6.743-2.57,13.776-4.938,21.04-7.083c15.162,58.53,45.547,113.937,91.157,159.93c0.355,0.364,0.718,0.728,1.078,1.087
		c0.258-0.258,0.516-0.516,0.774-0.779c6.821,8.562,18.234,18.501,31.862,28.463C564.114,751.049,606.875,773.99,632.704,780.913z"
		/>
	<path style="fill:#102a42;" d="M645.779,450.542c0,20.918-1.666,41.912-4.959,62.578c-0.687,4.32-1.447,8.626-2.275,12.919
		c-1.912,9.87-4.206,19.68-6.867,29.39c-4.095,14.932-9.064,29.62-14.863,43.916c-9.746,24.037-21.933,47.2-36.229,68.847
		c-7.581,11.482-28.869,37.56-47.646,60.059c-13.628-9.962-25.042-19.901-31.862-28.463c46.043-46.324,76.616-102.22,91.723-161.257
		c3.5-13.674,6.167-27.51,8.009-41.438c7.089-53.698,1.852-108.714-15.715-160.464c17.944,6.526,34.925,15.061,50.682,25.336
		c1,4.343,1.921,8.706,2.769,13.076C643.343,399.842,645.779,425.247,645.779,450.542z"/>
	<path style="fill:#102a42;" d="M617.979,304.646c-1.51-0.667-3.025-1.322-4.545-1.966c-16.143-6.831-32.738-12.141-49.682-15.917
		c-16.227-31.039-37.376-60.169-63.449-86.243c-26.073,26.073-47.223,55.204-63.449,86.243
		c-8.451,16.161-15.567,32.834-21.343,49.866c-17.696,52.127-22.882,107.567-15.554,161.639c-9.575,2.713-18.894,5.785-27.855,9.202
		c-4.169,1.589-8.309,3.266-12.418,5.029c-3.224-20.463-4.859-41.244-4.859-61.956c0-25.295,2.437-50.701,7.236-75.503
		c0.847-4.37,1.768-8.732,2.768-13.076c4.472-19.528,10.437-38.743,17.796-57.318c0.383-0.972,0.774-1.943,1.166-2.911
		c9.746-24.033,21.933-47.195,36.229-68.842c14.651-22.195,31.692-43.059,50.644-62.012l29.639-29.638l29.638,29.638
		c18.952,18.953,35.993,39.817,50.644,62.012c14.297,21.647,26.484,44.81,36.229,68.842
		C617.206,302.702,617.597,303.673,617.979,304.646z"/>
	<path style="fill:#102a42;" d="M500.071,698.493c-0.281,0.327-0.566,0.658-0.847,0.985c0.355,0.364,0.718,0.728,1.078,1.087
		c0.258-0.258,0.516-0.516,0.774-0.779C500.731,699.354,500.394,698.921,500.071,698.493z"/>
	<path style="fill:#102a42;" d="M852.9,814.521l-31.59,8.028c-32.024,8.138-64.877,12.265-97.647,12.265
		c-28.436,0-56.619-3.058-84.239-9.124c17.787-9.7,34.469-21.219,49.903-34.474c11.349,1.119,22.803,1.685,34.336,1.685
		c14.411,0,28.938-0.889,43.515-2.703c14.578-1.814,29.201-4.56,43.811-8.272c-9.188-36.16-23.646-69.593-42.345-99.678
		c-9.009-14.494-19-28.215-29.864-41.092c-29.909-35.455-66.41-64.503-107.102-85.727c2.661-9.709,4.955-19.52,6.867-29.39
		c0.829-4.292,1.588-8.599,2.275-12.919c22.793,11.063,44.556,24.323,64.826,39.513c15.069,11.293,29.334,23.664,42.636,36.975
		c7.323,7.314,14.352,14.922,21.062,22.785c5.19,6.084,10.327,12.265,15.287,18.584c13.444,17.115,25.64,35.225,34.372,55.034
		C853.333,763.895,852.9,814.521,852.9,814.521z"/>
	<path style="fill:#102a42;" d="M502.374,761.592c-19.344,14.738-52.638,34.469-79.61,45.201c-4.062,1.617-8.157,3.169-12.284,4.656
		c-16.185,5.832-32.641,10.584-49.3,14.241c-27.62,6.066-55.803,9.124-84.238,9.124c-32.766,0-65.619-4.127-97.647-12.265
		l-31.591-8.028c0,0-7.876-31.49,33.3-128.805c8.75-20.675,21.053-39.42,34.506-56.973c3.629,17.819,8.944,35.266,15.927,52.22
		c-18.438,30.729-32.632,64.798-41.82,100.963c29.209,7.424,58.507,10.975,87.325,10.975c11.532,0,22.987-0.566,34.335-1.685
		c19.248-1.894,38.177-5.361,56.623-10.304c27.423-7.346,67.345-27.151,99.834-52.289
		C483.491,745.472,493.163,752.841,502.374,761.592z"/>
	<path style="fill:#102a42;" d="M600.809,497.092c-1.842,13.928-4.509,27.764-8.009,41.438
		c-27.124-8.949-57.052-12.951-87.007-12.951c-33.866,0-67.773,5.112-97.725,13.969c-7.264,2.146-14.296,4.513-21.04,7.083
		c-6.231,2.372-12.357,4.965-18.382,7.766c-40.931,19.017-76.966,47.633-106.402,83.046c-0.373,0.447-0.742,0.894-1.11,1.345
		c-4.813-16.825-7.899-34.377-9.041-52.446c13.241-13.338,27.367-25.521,42.225-36.408c20.532-15.039,42.47-27.598,65.365-37.436
		c4.109-1.764,8.249-3.44,12.418-5.029c8.961-3.417,18.28-6.489,27.855-9.202c33.47-9.493,70.122-14.601,105.835-14.601
		c22.08,0,43.542,1.935,63.79,5.748C580.364,491.446,590.796,494.016,600.809,497.092z"/>
	<path style="fill:#8bcbf9;" d="M367.9,780.913c-18.446,4.942-37.375,8.41-56.623,10.304c-5.661-4.85-11.155-9.944-16.475-15.264
		c-26.686-26.682-47.637-57.761-62.275-92.369c-0.368-0.87-0.732-1.745-1.091-2.621c-6.983-16.954-12.298-34.4-15.927-52.22
		c-3.878-19.045-5.831-38.523-5.831-58.291c0-39.222,7.687-77.289,22.849-113.13c14.638-34.608,35.589-65.688,62.275-92.369
		c25.506-25.511,55.034-45.786,87.822-60.308c-7.36,18.575-13.324,37.791-17.796,57.318
		c-68.12,44.409-113.237,121.279-113.237,208.489c0,5.338,0.17,10.635,0.503,15.89c1.142,18.068,4.227,35.621,9.041,52.446
		C278.144,698.226,316.758,748.631,367.9,780.913z"/>
	<path style="fill:#8bcbf9;" d="M768.643,682.248c-0.189,0.447-0.373,0.889-0.562,1.336c-14.642,34.608-35.593,65.687-62.275,92.369
		c-5.319,5.319-10.814,10.414-16.479,15.264c-15.434,13.255-32.116,24.774-49.903,34.474c-8.419,4.587-17.088,8.774-25.991,12.537
		c-35.842,15.163-73.904,22.85-113.131,22.85c-39.222,0-77.285-7.687-113.131-22.85c-8.902-3.763-17.571-7.949-25.991-12.537
		c16.66-3.657,33.116-8.41,49.3-14.241c4.127-1.487,8.222-3.04,12.284-4.656c24.411,8.028,50.475,12.371,77.538,12.371
		c27.063,0,53.131-4.343,77.542-12.375c19.45-6.397,37.845-15.13,54.859-25.875c50.46-31.853,88.73-81.351,106.075-139.757
		C749.643,654.033,759.634,667.754,768.643,682.248z"/>
	<path style="fill:#8bcbf9;" d="M790.926,570.453c0,20.542-2.11,40.771-6.296,60.524c-4.96-6.319-10.097-12.5-15.287-18.584
		c-6.71-7.862-13.739-15.471-21.062-22.785c0.488-6.324,0.731-12.711,0.731-19.156c0-87.21-45.118-164.08-113.237-208.489
		c-15.756-10.275-32.737-18.81-50.682-25.336c-26.474-9.63-55.03-14.886-84.792-14.886c-29.762,0-58.318,5.255-84.792,14.886
		c5.775-17.032,12.892-33.705,21.343-49.866c20.684-4.611,41.889-6.932,63.449-6.932c21.559,0,42.769,2.321,63.449,6.932
		c16.943,3.776,33.539,9.087,49.682,15.917c1.52,0.645,3.036,1.299,4.545,1.966c32.789,14.522,62.316,34.797,87.827,60.308
		c26.682,26.681,47.633,57.76,62.275,92.369C783.239,493.164,790.926,531.23,790.926,570.453z"/>
	<path style="fill:#FFFFFF;" d="M824.124,683.753c-8.652-19.622-20.517-37.455-33.506-54.196c3.913-19.32,5.906-39.07,5.906-59.104
		c0.002-39.954-7.837-78.785-23.287-115.312c-14.919-35.267-36.289-66.965-63.473-94.146c-25.441-25.443-54.845-45.781-87.42-60.51
		c-0.114-0.282-0.228-0.571-0.34-0.851c-9.887-24.381-22.245-47.869-36.748-69.827c-14.861-22.513-32.139-43.666-51.357-62.885
		l-33.597-33.596l-33.597,33.596c-19.218,19.219-36.496,40.372-51.358,62.886l-0.257,0.39l0.258-0.391
		c-14.502,21.958-26.86,45.446-36.746,69.824c-0.114,0.283-0.228,0.572-0.342,0.854c-32.575,14.729-61.979,35.067-87.417,60.511
		c-27.188,27.18-48.558,58.879-63.472,94.146c-15.454,36.526-23.294,75.358-23.292,115.312c0,19.269,1.842,38.275,5.464,56.891
		c-13.031,17.205-25.02,35.695-33.697,56.19c-29.968,70.846-34.334,107.454-34.346,123.026c0,5.954,0.647,8.828,0.771,9.319
		l0.811,3.244l34.832,8.852c32.477,8.252,65.791,12.438,99.026,12.438c28.144,0,56.049-2.963,83.416-8.825
		c8,4.287,16.209,8.235,24.633,11.795c36.529,15.454,75.357,23.293,115.311,23.291c39.958,0.002,78.786-7.837,115.312-23.292
		c8.423-3.56,16.632-7.508,24.632-11.795c27.368,5.861,55.272,8.825,83.417,8.825c33.24,0,66.554-4.186,99.026-12.438l35.81-9.1
		v-4.354v-0.092C858.5,811.382,857.974,760.541,824.124,683.753z M762.925,459.503c14.866,35.157,22.4,72.458,22.402,110.949
		c0,16.083-1.341,31.957-3.958,47.557c-2.57-3.116-5.165-6.198-7.768-9.25c-6.252-7.325-12.789-14.421-19.567-21.28
		c0.376-5.632,0.576-11.308,0.576-17.027c0.001-44.574-11.537-86.541-31.777-123.011c-19.868-35.802-48.13-66.301-82.099-88.885
		l-0.011-0.049l-1.89-1.232c-10.069-6.567-20.628-12.438-31.612-17.548c-6.59-3.066-13.333-5.857-20.215-8.36l-10.965-3.988
		l0.109,0.322c-23.969-7.505-49.452-11.557-75.849-11.557c-26.312,0-51.713,4.027-75.614,11.485
		c4.598-12.208,9.911-24.204,15.932-35.935c19.475-4.152,39.408-6.267,59.683-6.267c21.157,0,41.955,2.277,62.231,6.797
		c8.307,1.852,16.528,4.079,24.651,6.681c8.124,2.602,16.15,5.578,24.067,8.928c1.497,0.635,2.985,1.277,4.463,1.931
		c32.161,14.246,61.1,34.115,86.132,59.146C728.027,395.093,748.559,425.553,762.925,459.503z M709.002,548.153
		c-19.458-14.581-40.277-27.379-62.047-38.223c2.924-19.642,4.422-39.543,4.422-59.388c0-25.444-2.436-50.986-7.224-75.945
		c28.211,20.775,51.805,47.486,68.891,78.277c19.348,34.869,30.369,74.941,30.371,117.578c0,2.194-0.04,4.378-0.097,6.558
		C732.427,566.769,720.97,557.122,709.002,548.153z M590.154,796.357c-4,1.597-8.06,3.069-12.16,4.455
		c-12.934-5.243-28.428-12.525-45.845-23.939c-7.894-5.175-16.183-11.203-24.793-18.271l-1.125-1.069
		c-4.752-4.513-9.491-8.556-14.953-13.529c-5.46-4.971-11.678-10.892-19.438-19.188c-9.772-10.631-19.709-22.746-28.125-33.61
		c-4.21-5.436-8.042-10.56-11.286-15.029c-3.242-4.467-5.899-8.286-7.738-11.071c-14.091-21.335-26.108-44.173-35.713-67.865
		c-5.253-12.951-9.809-26.235-13.649-39.731c3.019-1.341,6.062-2.63,9.131-3.863c1.513-0.607,3.033-1.202,4.559-1.783
		c4.893-1.865,9.949-3.622,15.141-5.265c15.431,55.814,44.605,108.647,87.476,153.117c-0.001,0.002,3.581,3.672,3.581,3.672
		c0.396,0.404,0.769,0.779,1.126,1.136l3.958,3.958l0.479-0.479c2.915,3.158,6.251,6.386,9.958,9.677
		c5.577,4.948,11.966,10.023,18.896,15.089l4.238,3.098c14.907,10.511,31.872,20.881,48.33,29.613
		c9.026,4.788,17.896,9.081,26.197,12.635c3.729,1.596,7.333,3.034,10.799,4.311c-6.204,3.495-12.576,6.72-19.099,9.669
		C596.818,793.58,593.511,795.018,590.154,796.357z M368.828,774.845c-48.161-31.081-84.685-78.72-101.468-134.773
		c27.355-32.658,60.396-59.31,97.705-77.729c3.842,13.273,8.36,26.344,13.537,39.107c9.886,24.382,22.244,47.869,36.746,69.828
		c1.973,2.986,4.703,6.906,8.019,11.477c9.041,12.454,22.403,29.691,36.111,45.08c-14.662,10.866-30.654,20.651-46.127,28.631
		C397.192,764.806,381.583,771.186,368.828,774.845z M257.189,570.453c0.001-42.637,11.022-82.709,30.371-117.578
		c17.086-30.791,40.68-57.502,68.892-78.278c-4.788,24.958-7.226,50.501-7.226,75.946c0,19.564,1.457,39.179,4.295,58.544
		c-21.865,9.736-42.828,21.915-62.511,36.331c-11.738,8.602-23.015,18.004-33.772,28.122
		C257.225,572.51,257.189,571.486,257.189,570.453z M402.336,450.455c0-36.996,5.898-73.987,17.634-109.461
		c25.157-8.833,52.18-13.652,80.333-13.653c28.152,0,55.175,4.819,80.332,13.652c11.749,35.52,17.633,72.562,17.633,109.609
		c0,13.112-0.745,26.225-2.22,39.271c-8.239-2.318-16.72-4.319-25.43-5.96c-20.616-3.882-42.419-5.845-64.826-5.845
		c-34.028,0.002-68.827,4.562-101.086,13.094C403.126,477.644,402.336,464.05,402.336,450.455z M608.749,352.896
		c7.591,3.8,14.946,8.004,22.063,12.553c0.792,3.541,1.544,7.093,2.235,10.655c4.731,24.449,7.133,49.502,7.133,74.438
		c0,20.62-1.643,41.319-4.889,61.692c-0.678,4.264-1.427,8.509-2.245,12.742c-1.884,9.729-4.145,19.4-6.769,28.973
		c-4.037,14.72-8.937,29.201-14.651,43.292c-9.606,23.692-21.623,46.53-35.713,67.866c-1.772,2.686-4.474,6.407-7.787,10.76
		c-9.158,12.042-22.993,28.978-36.096,44.728c-2.648-2.005-5.194-4-7.605-5.97c-2.199-1.797-4.29-3.573-6.255-5.317
		c-3.64-3.229-6.839-6.351-9.507-9.273c43.265-44.776,72.621-98.049,88.025-154.325l0.048,0.016l1.485-5.803
		c2.223-8.686,4.115-17.432,5.678-26.224c0.938-5.275,1.757-10.567,2.459-15.872l0.621-4.695c1.637-14.131,2.485-28.33,2.485-42.529
		c0-35.225-5.158-70.447-15.454-104.452c2.037,0.854,4.06,1.737,6.068,2.645C602.996,350.113,605.894,351.467,608.749,352.896z
		 M501.605,691.226l-1.247-1.655l-1.393,1.621c-41.205-43-69.215-93.943-84.066-147.772c28.111-7.777,59.554-12.245,90.894-12.242
		c27.605-0.002,55.128,3.465,80.23,11.08C571.25,596.53,543.123,647.906,501.605,691.226z M401.482,503.653
		c32.946-9.347,69.13-14.391,104.31-14.389c21.752,0,42.875,1.907,62.753,5.651c8.957,1.688,17.641,3.774,26.048,6.195
		c-1.27,8.682-2.863,17.324-4.788,25.909c-0.328,1.463-0.67,2.923-1.018,4.382c-26.238-7.895-54.632-11.419-82.996-11.421
		c-32.351,0.003-64.666,4.58-93.744,12.609l-0.013-0.052l-5.554,1.641c-1.155,0.341-2.293,0.698-3.436,1.05
		c-0.802,0.247-1.608,0.489-2.405,0.742c-5.338,1.692-10.55,3.503-15.606,5.43c-6.357,2.42-12.605,5.065-18.747,7.92l-4.28,1.989
		l0.019,0.068c-37.293,18.073-70.446,43.961-98.188,75.584c-1.058-4.427-1.998-8.899-2.81-13.417
		c-0.854-4.758-1.585-9.559-2.158-14.408c-0.416-3.521-0.734-7.071-0.997-10.637c12.518-12.433,25.807-23.831,39.753-34.051
		c20.196-14.792,41.767-27.14,64.265-36.808c4.038-1.733,8.105-3.38,12.203-4.942C382.894,509.345,392.057,506.324,401.482,503.653z
		 M526.011,786.238c12.83,8.41,24.708,14.687,35.309,19.565c-19.501,5.061-39.943,7.761-61.017,7.761
		c-21.132,0-41.626-2.714-61.175-7.8c9.658-4.521,19.583-9.75,29.094-15.217c12.613-7.256,24.454-14.887,33.894-21.782
		C510.372,775.441,518.362,781.226,526.011,786.238z M631.787,774.838c-5.58-1.644-12.034-4.039-18.98-7.015
		c-22.236-9.512-49.508-24.955-71.714-40.614c8.245-9.916,16.757-20.273,24.239-29.622c4.329-5.409,8.312-10.479,11.707-14.943
		c3.398-4.469,6.2-8.313,8.218-11.369c14.502-21.958,26.86-45.445,36.746-69.828c5.006-12.342,9.396-24.973,13.155-37.796
		c36.732,20.086,69.806,46.733,97.356,78.816C715.42,697.476,679.253,744.201,631.787,774.838z M500.302,208.513
		c20.971,21.65,38.569,45.34,52.801,70.424c-17.307-3.113-34.939-4.706-52.801-4.706c-17.864,0-35.494,1.592-52.802,4.706
		C461.733,253.853,479.331,230.163,500.302,208.513z M424.691,235.978c14.44-21.876,31.245-42.452,49.932-61.139l25.679-25.679
		l25.68,25.679c18.686,18.687,35.491,39.262,49.93,61.138c12.187,18.452,22.813,38.029,31.678,58.305
		c-13.104-5.1-26.487-9.231-40.095-12.392c-16.323-30.68-37.397-59.493-63.234-85.33l-3.959-3.958l-3.958,3.958
		c-25.827,25.828-46.896,54.629-63.215,85.296c-0.031,0.007-1.235,2.31-1.235,2.31c-4.92,9.409-9.379,18.992-13.407,28.712
		c-1.245,3.003-2.462,6.015-3.621,9.045c-1.637,4.278-3.189,8.581-4.656,12.907c-0.001,0.003-3.746,11.046-3.746,11.046l0.241-0.087
		c-10.357,34.067-15.564,69.364-15.564,104.667c0,14.625,0.89,29.25,2.663,43.789c-3.16,0.942-6.301,1.91-9.401,2.93
		c-0.119,0.039-0.24,0.075-0.358,0.114c-2.362,0.78-4.706,1.583-7.029,2.408c-2.323,0.825-4.626,1.672-6.908,2.542
		c-1.985,0.757-3.962,1.537-5.934,2.333c-2.486-17.888-3.75-35.987-3.75-54.028c0-24.936,2.403-49.99,7.134-74.438
		c0.835-4.307,1.742-8.603,2.725-12.876c4.412-19.265,10.293-38.211,17.547-56.52c0.377-0.958,0.761-1.912,1.15-2.873
		C398.583,280.151,410.6,257.313,424.691,235.978z M237.684,459.503c14.361-33.95,34.893-64.409,61.077-90.591
		c21.78-21.783,46.525-39.652,73.774-53.313c-5.006,14.049-9.23,28.406-12.645,42.942c-33.979,22.585-62.248,53.09-82.121,88.9
		c-20.241,36.47-31.779,78.438-31.777,123.011c0,4.602,0.131,9.172,0.374,13.713c-0.019,0.019,0.14,2.528,0.14,2.528
		c0.729,11.549,2.236,22.891,4.464,33.975c1.337,6.65,2.935,13.208,4.781,19.66l2.945,10.293l0.18-0.22
		c17.354,52.269,51.212,97.038,95.377,128.124c-3.167,0.727-6.348,1.413-9.541,2.051c-4.252,0.851-8.523,1.632-12.816,2.324
		c-6.221,1.002-12.486,1.821-18.784,2.485c-4.911-4.281-9.702-8.742-14.351-13.392c-26.185-26.182-46.717-56.641-61.078-90.591
		l-0.075-0.178l0.074,0.175c-0.359-0.847-0.714-1.702-1.065-2.559c-6.853-16.638-12.063-33.742-15.622-51.214
		c-3.803-18.674-5.719-37.774-5.719-57.174C215.279,531.962,222.813,494.661,237.684,459.503z M230.73,693.38
		c14.698,32.222,34.899,61.323,60.114,86.531c2.289,2.289,4.617,4.528,6.97,6.735c-6.926,0.419-13.882,0.657-20.873,0.657
		c-26.556,0-53.526-3.064-80.46-9.456C204.558,747.913,216.131,719.511,230.73,693.38z M180.673,817.123l-27.875-7.083
		c-0.057-0.94-0.1-2.083-0.1-3.479c-0.011-13.439,3.862-48.732,33.461-118.663c6.921-16.357,16.192-31.584,26.585-46.047
		c1.801,7.267,3.867,14.472,6.227,21.598c1.897,5.732,3.995,11.41,6.251,17.041c-18.03,30.578-31.95,64.31-41.032,100.059
		l-1.378,5.425l5.425,1.379c29.663,7.54,59.426,11.148,88.705,11.148c10.902,0,21.732-0.52,32.476-1.505
		c0.031,0.026,2.408-0.208,2.408-0.208c6.333-0.623,12.627-1.432,18.885-2.386c1.694-0.258,3.385-0.526,5.073-0.809
		c6.52-1.091,12.999-2.345,19.422-3.79c4.744-1.066,9.459-2.228,14.144-3.483l12.36-3.312l-0.543-0.343
		c11.5-3.976,24.231-9.503,37.318-16.25c16.313-8.417,33.123-18.734,48.593-30.29c8.939,9.484,17.689,17.838,26.187,25.222
		c-8.651,6.172-19.336,13.003-30.626,19.495c-13.929,8.013-28.812,15.526-41.944,20.749c-1.267,0.504-2.543,0.991-3.816,1.482
		c-2.752,1.063-5.514,2.106-8.296,3.109c-15.958,5.75-32.181,10.435-48.602,14.04c-27.226,5.979-55.004,8.994-83.038,8.994
		C244.646,829.216,212.254,825.147,180.673,817.123z M611.253,833.07c-35.16,14.872-72.456,22.405-110.951,22.407
		c-38.491-0.002-75.788-7.536-110.95-22.407c-4.1-1.733-8.145-3.566-12.142-5.479c2.645-0.688,5.283-1.403,7.915-2.146
		c2.899-0.818,5.793-1.656,8.677-2.54c6.229-1.909,12.422-3.973,18.576-6.19c3.549-1.28,7.07-2.616,10.572-3.99
		c24.407,7.81,50.401,12.036,77.353,12.036c26.942,0,52.932-4.223,77.332-12.032c0.029,0.012,1.959-0.624,1.959-0.624
		c1.861-0.612,3.703-1.266,5.544-1.919c1.238-0.439,2.472-0.888,3.702-1.346c9.157-3.412,18.076-7.316,26.703-11.719
		c6.904-3.524,13.626-7.355,20.15-11.475l10.815-6.83l-0.413-0.111c43.646-30.642,77.259-74.637,94.866-126.028
		c0.463,0.583,0.935,1.16,1.395,1.747c7.1,9.058,13.764,18.515,19.979,28.329c-14.337,33.405-34.657,63.409-60.487,89.24
		c-5.22,5.22-10.608,10.216-16.161,14.969c-15.145,13.007-31.5,24.3-48.943,33.813C628.487,825.274,619.985,829.379,611.253,833.07z
		 M769.397,694.41c14.839,25.619,26.619,53.548,34.722,83.438c-12.555,2.979-25.112,5.236-37.633,6.794
		c-14.346,1.786-28.643,2.661-42.823,2.661c-6.99,0-13.946-0.237-20.87-0.657c2.354-2.207,4.682-4.446,6.971-6.735
		C734.706,754.972,754.736,726.221,769.397,694.41z M819.931,817.123c-31.576,8.025-63.968,12.093-96.268,12.093
		c-23.097,0-46.02-2.052-68.603-6.116c5.222-3.202,10.332-6.58,15.345-10.103c5.671-3.987,11.218-8.159,16.611-12.55
		c1.391-1.132,2.759-2.296,4.131-3.455c10.757,0.988,21.601,1.508,32.516,1.508c14.641,0,29.4-0.903,44.207-2.747
		c14.809-1.843,29.662-4.632,44.497-8.401l5.426-1.378l-1.378-5.426c-9.078-35.728-23.24-68.842-41.498-98.759
		c0.013-0.031-1.518-2.495-1.518-2.495c-0.837-1.347-1.691-2.679-2.545-4.013c-0.879-1.373-1.769-2.737-2.665-4.096
		c-1.803-2.733-3.629-5.447-5.501-8.122c-6.178-8.829-12.729-17.34-19.628-25.517l-6.691-7.932l-0.055,0.186
		c-28.061-31.388-61.342-57.46-98.095-77.213c0.039-0.147,0.078-0.294,0.117-0.441c0.568-2.175,1.116-4.355,1.647-6.54
		c0.89-3.659,1.746-7.326,2.533-11.007c0.533-2.494,1.042-4.993,1.526-7.496c0.36-1.864,0.7-3.729,1.033-5.596
		c20.04,10.204,39.229,22.127,57.214,35.605c14.856,11.133,28.92,23.33,42.033,36.452c7.22,7.212,14.148,14.711,20.763,22.462
		c5.158,6.046,10.245,12.169,15.142,18.407c13.279,16.901,25.192,34.636,33.652,53.835c27.952,63.413,32.528,108.369,33.276,121.935
		L819.931,817.123z"/>
</g>
</svg>
